# xmcd
#
# Track frame offsets:
#	150
#	20552
#	40060
#	63515
#	82552
#	103140
#	123400
#	144260
#
# Disc length: 2216 seconds
#
# Revision: 1
# Processed by: cddbd v1.4PL0 Copyright (c) Steve Scherf et al.
# Submitted via: EasyCDDAExtractor 5.0.6
#
DISCID=5e08a608
DTITLE=De Menor A Mayor
DYEAR=1993
DGENRE=Salsa
TTITLE0=Deprimido Soy Feliz
TTITLE1=Cada Vez
TTITLE2=Es Por Usted
TTITLE3=Si Ella
TTITLE4=Regresa
TTITLE5=Todo Mi Corazon
TTITLE6=A Escondidas
TTITLE7=Lo Que Tu Me Has Hecho
EXTD=
EXTT0=
EXTT1=
EXTT2=
EXTT3=
EXTT4=
EXTT5=
EXTT6=
EXTT7=
PLAYORDER=
